<svg width="22" height="26" viewBox="0 0 22 26" fill="none" xmlns="http://www.w3.org/2000/svg">
<path d="M16.5 8.09703V5.6964C16.5 4.94834 16.3577 4.2076 16.0813 3.51648C15.8049 2.82536 15.3998 2.1974 14.8891 1.66844C14.3784 1.13948 13.772 0.719883 13.1048 0.433613C12.4375 0.147342 11.7223 0 11 0C10.2777 0 9.56253 0.147342 8.89524 0.433613C8.22795 0.719883 7.62163 1.13948 7.11091 1.66844C6.60019 2.1974 6.19506 2.82536 5.91866 3.51648C5.64226 4.2076 5.5 4.94834 5.5 5.6964V11.3928C5.5 11.6086 5.58278 11.8156 5.73013 11.9682C5.87748 12.1208 6.07733 12.2066 6.28571 12.2066C6.4941 12.2066 6.69395 12.1208 6.8413 11.9682C6.98865 11.8156 7.07143 11.6086 7.07143 11.3928V9.72457H13.3571V8.09703H7.07143V5.6964C7.07143 4.61727 7.48533 3.58234 8.22208 2.81928C8.95883 2.05623 9.95808 1.62754 11 1.62754C12.0419 1.62754 13.0412 2.05623 13.7779 2.81928C14.5147 3.58234 14.9286 4.61727 14.9286 5.6964V11.3521C14.9286 11.5679 15.0114 11.7749 15.1587 11.9275C15.3061 12.0801 15.5059 12.1659 15.7143 12.1659C15.9227 12.1659 16.1225 12.0801 16.2699 11.9275C16.4172 11.7749 16.5 11.5679 16.5 11.3521V9.72457H20.4286V24.3725H1.57143V9.72457H3.92857V8.09703H0V24.4457C0 24.8579 0.15811 25.2533 0.439549 25.5448C0.720987 25.8362 1.1027 26 1.50071 26H20.4993C20.8973 26 21.279 25.8362 21.5605 25.5448C21.8419 25.2533 22 24.8579 22 24.4457V8.09703H16.5Z" fill="white" fill-opacity="0.79"/>
</svg>
