<svg width="29" height="29" viewBox="0 0 29 29" fill="none" xmlns="http://www.w3.org/2000/svg">
<path d="M28.1708 3.96458C27.7442 3.53722 27.052 3.53649 26.6253 3.96277L13.5134 17.0401L8.7827 11.902C8.37392 11.4583 7.68279 11.4295 7.23833 11.8382C6.79421 12.247 6.76578 12.9385 7.17456 13.3826L12.6758 19.3571C12.8773 19.5761 13.1593 19.7033 13.4566 19.7094C13.4646 19.7098 13.4723 19.7098 13.4799 19.7098C13.7688 19.7098 14.0468 19.595 14.2515 19.391L28.1686 5.51036C28.5963 5.08414 28.5971 4.39193 28.1708 3.96458Z" fill="white"/>
<path d="M28.1708 3.96458C27.7442 3.53722 27.052 3.53649 26.6253 3.96277L13.5134 17.0401L8.7827 11.902C8.37392 11.4583 7.68279 11.4295 7.23833 11.8382C6.79421 12.247 6.76578 12.9385 7.17456 13.3826L12.6758 19.3571C12.8773 19.5761 13.1593 19.7033 13.4566 19.7094C13.4646 19.7098 13.4723 19.7098 13.4799 19.7098C13.7688 19.7098 14.0468 19.595 14.2515 19.391L28.1686 5.51036C28.5963 5.08414 28.5971 4.39193 28.1708 3.96458Z" fill="url(#paint0_linear)"/>
<path d="M27.907 13.407C27.3033 13.407 26.8141 13.8963 26.8141 14.5C26.8141 21.2902 21.2902 26.8141 14.5 26.8141C7.71015 26.8141 2.18593 21.2902 2.18593 14.5C2.18593 7.71015 7.71015 2.18593 14.5 2.18593C15.1037 2.18593 15.593 1.69667 15.593 1.09299C15.593 0.489262 15.1037 0 14.5 0C6.50461 0 0 6.50461 0 14.5C0 22.4951 6.50461 29 14.5 29C22.4951 29 29 22.4951 29 14.5C29 13.8963 28.5107 13.407 27.907 13.407Z" fill="white"/>
<path d="M27.907 13.407C27.3033 13.407 26.8141 13.8963 26.8141 14.5C26.8141 21.2902 21.2902 26.8141 14.5 26.8141C7.71015 26.8141 2.18593 21.2902 2.18593 14.5C2.18593 7.71015 7.71015 2.18593 14.5 2.18593C15.1037 2.18593 15.593 1.69667 15.593 1.09299C15.593 0.489262 15.1037 0 14.5 0C6.50461 0 0 6.50461 0 14.5C0 22.4951 6.50461 29 14.5 29C22.4951 29 29 22.4951 29 14.5C29 13.8963 28.5107 13.407 27.907 13.407Z" fill="url(#paint1_linear)"/>
<defs>
<linearGradient id="paint0_linear" x1="-15.8601" y1="2.99679" x2="22.335" y2="13.2961" gradientUnits="userSpaceOnUse">
<stop stop-color="#747474"/>
<stop offset="0.1507" stop-color="#4D4D4D"/>
<stop offset="0.4298" stop-color="#D8D8D8"/>
<stop offset="0.6274" stop-color="#D8D8D8"/>
<stop offset="0.921875" stop-color="#8F8F8F" stop-opacity="0.87"/>
<stop offset="0.9503" stop-color="#B4B4B4"/>
<stop offset="1" stop-color="#C7C7C7"/>
</linearGradient>
<linearGradient id="paint1_linear" x1="-15.8601" y1="2.99679" x2="22.335" y2="13.2961" gradientUnits="userSpaceOnUse">
<stop stop-color="#747474"/>
<stop offset="0.1507" stop-color="#4D4D4D"/>
<stop offset="0.4298" stop-color="#D8D8D8"/>
<stop offset="0.6274" stop-color="#D8D8D8"/>
<stop offset="0.921875" stop-color="#8F8F8F" stop-opacity="0.87"/>
<stop offset="0.9503" stop-color="#B4B4B4"/>
<stop offset="1" stop-color="#C7C7C7"/>
</linearGradient>
</defs>
</svg>
