<svg width="37" height="29" viewBox="0 0 37 29" fill="none" xmlns="http://www.w3.org/2000/svg">
<path d="M34.444 0.833344H2.55512C1.95102 0.833344 1.37166 1.07332 0.944489 1.50049C0.517323 1.92766 0.277344 2.50702 0.277344 3.11112V25.8889C0.277344 26.493 0.517323 27.0724 0.944489 27.4995C1.37166 27.9267 1.95102 28.1667 2.55512 28.1667H34.444C35.0481 28.1667 35.6275 27.9267 36.0546 27.4995C36.4818 27.0724 36.7218 26.493 36.7218 25.8889V3.11112C36.7218 2.50702 36.4818 1.92766 36.0546 1.50049C35.6275 1.07332 35.0481 0.833344 34.444 0.833344ZM32.6901 25.8889H4.44568L12.4179 17.6433L10.7779 16.0603L2.55512 24.5678V4.84223L16.7115 18.9303C17.1383 19.3545 17.7156 19.5926 18.3173 19.5926C18.9191 19.5926 19.4964 19.3545 19.9232 18.9303L34.444 4.48918V24.4197L26.0618 16.0375L24.456 17.6433L32.6901 25.8889ZM4.04707 3.11112H32.599L18.3173 17.3131L4.04707 3.11112Z" fill="white" fill-opacity="0.63"/>
</svg>
