<svg width="23" height="23" viewBox="0 0 23 23" fill="none" xmlns="http://www.w3.org/2000/svg">
<path fill-rule="evenodd" clip-rule="evenodd" d="M11.3125 0.701172C5.20285 0.701172 0.25 5.65402 0.25 11.7637C0.25 17.8733 5.20285 22.8262 11.3125 22.8262C17.4221 22.8262 22.375 17.8733 22.375 11.7637C22.375 5.65402 17.4221 0.701172 11.3125 0.701172ZM8.88026 5.89932C9.5096 5.87068 9.71069 5.86367 11.3131 5.86367H11.3112C12.9141 5.86367 13.1144 5.87068 13.7438 5.89932C14.3719 5.92808 14.8008 6.02752 15.177 6.17343C15.5654 6.324 15.8936 6.52559 16.2218 6.85378C16.55 7.18172 16.7516 7.5109 16.9027 7.89895C17.0478 8.27409 17.1474 8.70283 17.1769 9.33094C17.2051 9.96028 17.2125 10.1614 17.2125 11.7637C17.2125 13.3661 17.2051 13.5667 17.1769 14.196C17.1474 14.8239 17.0478 15.2528 16.9027 15.628C16.7516 16.016 16.55 16.3451 16.2218 16.6731C15.894 17.0013 15.5653 17.2033 15.1773 17.354C14.802 17.4999 14.3727 17.5994 13.7446 17.6281C13.1153 17.6568 12.9148 17.6638 11.3123 17.6638C9.71008 17.6638 9.50911 17.6568 8.87977 17.6281C8.25178 17.5994 7.82292 17.4999 7.44753 17.354C7.05972 17.2033 6.73055 17.0013 6.40273 16.6731C6.07466 16.3451 5.87307 16.016 5.72225 15.6279C5.57647 15.2528 5.47703 14.824 5.44815 14.1959C5.41963 13.5666 5.4125 13.3661 5.4125 11.7637C5.4125 10.1614 5.41988 9.96016 5.44802 9.33082C5.47629 8.70295 5.57586 8.27409 5.72213 7.89882C5.87332 7.5109 6.0749 7.18172 6.4031 6.85378C6.73104 6.52571 7.06021 6.32412 7.44827 6.17343C7.82341 6.02752 8.25215 5.92808 8.88026 5.89932Z" fill="white"/>
<path fill-rule="evenodd" clip-rule="evenodd" d="M10.7839 6.92677C10.8866 6.92661 10.9972 6.92666 11.1165 6.92671L11.3131 6.92677C12.8885 6.92677 13.0752 6.93242 13.6973 6.96069C14.2725 6.987 14.5847 7.08312 14.7927 7.16388C15.068 7.27082 15.2643 7.39865 15.4707 7.60515C15.6772 7.81165 15.8051 8.00832 15.9122 8.28366C15.993 8.49139 16.0892 8.8036 16.1154 9.37886C16.1437 10.0008 16.1498 10.1877 16.1498 11.7622C16.1498 13.3368 16.1437 13.5237 16.1154 14.1456C16.0891 14.7209 15.993 15.0331 15.9122 15.2408C15.8053 15.5162 15.6772 15.7122 15.4707 15.9186C15.2642 16.1251 15.0682 16.2529 14.7927 16.3599C14.585 16.441 14.2725 16.5369 13.6973 16.5632C13.0753 16.5914 12.8885 16.5976 11.3131 16.5976C9.7377 16.5976 9.55099 16.5914 8.92902 16.5632C8.35377 16.5366 8.04156 16.4405 7.83346 16.3597C7.55812 16.2528 7.36145 16.125 7.15495 15.9185C6.94845 15.712 6.82061 15.5158 6.71343 15.2403C6.63267 15.0326 6.53643 14.7204 6.51024 14.1451C6.48197 13.5232 6.47632 13.3363 6.47632 11.7608C6.47632 10.1852 6.48197 9.99935 6.51024 9.37738C6.53655 8.80213 6.63267 8.48992 6.71343 8.28194C6.82037 8.0066 6.94845 7.80993 7.15495 7.60343C7.36145 7.39693 7.55812 7.26909 7.83346 7.16191C8.04143 7.08078 8.35377 6.98491 8.92902 6.95848C9.4733 6.9339 9.68423 6.92652 10.7839 6.92529V6.92677ZM14.4625 7.90629C14.0717 7.90629 13.7545 8.22305 13.7545 8.61405C13.7545 9.00493 14.0717 9.32206 14.4625 9.32206C14.8534 9.32206 15.1706 9.00493 15.1706 8.61405C15.1706 8.22318 14.8534 7.90605 14.4625 7.90605V7.90629ZM8.28321 11.7635C8.28321 10.0903 9.63979 8.73364 11.313 8.73357C12.9863 8.73357 14.3426 10.0902 14.3426 11.7635C14.3426 13.4368 12.9864 14.7928 11.3131 14.7928C9.63986 14.7928 8.28321 13.4368 8.28321 11.7635Z" fill="white"/>
<path fill-rule="evenodd" clip-rule="evenodd" d="M11.3131 9.79688C12.3992 9.79688 13.2798 10.6773 13.2798 11.7636C13.2798 12.8497 12.3992 13.7302 11.3131 13.7302C10.2269 13.7302 9.34644 12.8497 9.34644 11.7636C9.34644 10.6773 10.2269 9.79688 11.3131 9.79688V9.79688Z" fill="white"/>
</svg>
