<svg width="52" height="22" viewBox="0 0 52 22" fill="none" xmlns="http://www.w3.org/2000/svg">
<path fill-rule="evenodd" clip-rule="evenodd" d="M30.262 8.95473L30.3371 10.1361C30.3465 10.2017 30.3465 10.2486 30.3465 10.3424C30.3465 10.4361 30.3653 10.4455 30.3653 10.5393C30.3653 10.8018 30.4122 11.0737 30.4122 11.3456L30.4403 11.73C30.4591 11.8706 30.4591 12.0019 30.4591 12.1425C30.4591 12.255 30.4872 12.4144 30.4966 12.5269L30.5248 13.1082C30.5248 13.202 30.5435 13.2207 30.5435 13.3051L30.5905 14.1115C30.5905 14.2052 30.6092 14.2146 30.6092 14.3084C30.6092 14.5427 30.6374 14.6553 30.6374 14.9084L30.6749 15.3116H29.0046L29.3143 13.7177C29.3612 13.4458 29.4269 13.1926 29.4738 12.9207C29.4926 12.7895 29.5207 12.6676 29.5489 12.5269C29.577 12.3863 29.6052 12.2644 29.6239 12.1238L29.9336 10.5299C29.9899 10.2673 30.0274 9.99545 30.0931 9.73292L30.2057 9.14224C30.2151 9.10474 30.2151 9.09537 30.2245 9.03911L30.2527 8.93598L30.262 8.95473ZM39.3078 11.7487H37.6845C37.6188 11.7487 37.6469 11.6925 37.6469 11.6175L37.8346 8.64532C37.8346 8.55156 37.8534 8.54219 37.8534 8.45781L37.9097 7.46396C37.9191 7.39833 37.9191 7.34208 37.9191 7.26707C37.9191 7.0983 37.966 6.67639 37.966 6.4795C37.966 6.38574 37.9848 6.36699 37.9848 6.2826L38.0035 5.87944C38.0129 5.76693 38.0317 5.59816 38.0317 5.47628H39.7676C40.2462 5.47628 40.1055 5.83256 40.1055 6.2076L39.8896 9.56416C39.8896 9.63917 39.899 9.7048 39.8896 9.7798C39.8427 10.2017 39.8427 10.7455 39.7958 11.1581C39.7676 11.4112 39.8709 11.7394 39.3078 11.7394V11.7487ZM27.9537 20.4871C27.9912 20.3089 28.0287 20.112 28.0663 19.9339C28.1038 19.737 28.1413 19.5588 28.1789 19.3619C28.2164 19.1744 28.2539 18.9869 28.2915 18.79C28.329 18.6025 28.3665 18.4056 28.4135 18.2275H30.8907C30.8907 18.3869 30.9377 18.64 30.9377 18.7994C30.947 19.0807 30.994 19.3713 31.0033 19.6526C31.0127 19.8401 31.0503 20.037 31.0503 20.2339C31.0503 20.3183 31.0409 20.4871 31.1159 20.4871H37.037C37.1121 20.4871 37.0839 20.3558 37.1027 20.1683C37.1215 19.9339 37.1215 19.6807 37.1496 19.4463C37.159 19.3901 37.1496 19.3244 37.1496 19.2682L37.2153 18.3587C37.2341 18.19 37.2247 17.9743 37.2528 17.8056C37.281 17.6274 37.2716 17.4399 37.2904 17.2524C37.2998 17.1961 37.2904 17.1399 37.2998 17.0742L37.3936 15.621C37.3936 15.546 37.3936 15.4991 37.403 15.4241C37.4311 15.2178 37.4499 14.8897 37.4499 14.6834H37.8815C37.9472 14.6834 37.9378 14.7678 37.9566 14.824L38.4352 16.8305C38.4915 17.0649 38.5572 17.3368 38.6135 17.5712C38.8011 18.3025 38.9794 19.0244 39.1389 19.7651L39.2703 20.3183C39.2891 20.3839 39.2797 20.4777 39.3454 20.4777H43.0707C43.0707 20.3933 43.005 20.2058 42.9768 20.112L42.5921 18.6775C42.442 18.0681 42.2543 17.468 42.1042 16.8586C41.954 16.2585 41.7664 15.6491 41.6256 15.049C41.5975 14.9272 41.5505 14.8053 41.5224 14.6834C41.9822 14.6834 42.3294 14.5615 42.5827 14.3552C43.005 14.0177 43.2677 13.502 43.2584 12.9301L43.4648 9.64854C43.4836 9.54541 43.4742 9.41414 43.4929 9.32039L43.5305 8.6547C43.5305 8.57969 43.5399 8.56094 43.5492 8.50468C43.5586 8.43905 43.5492 8.39217 43.5586 8.32654C43.5868 8.16715 43.5774 7.99839 43.5868 7.839L43.6337 7.18269C43.6431 7.0233 43.6431 6.83578 43.6618 6.67639L43.7182 5.68255H44.8348C44.8348 5.99195 44.7879 6.29198 44.7879 6.60138L44.7222 7.52022C44.7034 7.67961 44.7128 7.82962 44.7034 7.98901L44.6377 8.90785C44.6377 9.07661 44.6284 9.236 44.6096 9.37664L44.3844 13.0707C44.3656 13.202 44.3656 13.3989 44.3562 13.5302C44.3562 13.6145 44.3375 13.6427 44.3375 13.7458L44.0372 18.6213C44.0278 18.7619 43.9997 18.9307 43.9997 19.0713L43.9434 19.9995C43.9246 20.1401 43.9152 20.3089 43.9152 20.4683H47.5936C47.6687 20.4683 47.6405 20.3652 47.6405 20.2808C47.6405 20.1308 47.678 19.9808 47.678 19.812L47.7531 18.6494C47.7719 18.5275 47.7813 18.3306 47.7813 18.19C47.7813 18.1056 47.8 18.0681 47.8 17.9556C47.8 17.8431 47.8188 17.8149 47.8188 17.7212C47.8188 17.5993 47.8282 17.3836 47.8469 17.2618C47.8751 17.1024 47.8563 16.943 47.8751 16.7836C47.8845 16.6429 47.9032 16.4836 47.9032 16.3335L47.9408 15.8647C47.9408 15.7616 47.9502 15.7241 47.9596 15.6491L47.9971 14.9272C48.0159 14.6553 48.0534 14.2802 48.0628 14.0083L48.1097 13.0707C48.1191 12.9301 48.1472 12.7707 48.1472 12.6207C48.1472 12.4613 48.1754 12.3019 48.1848 12.1519C48.1941 11.8237 48.2223 11.5425 48.2317 11.2143L48.5601 6.12321C48.5695 6.03883 48.5695 5.9732 48.5695 5.87944C48.5695 5.79506 48.5883 5.75755 48.5883 5.64504H51.028C50.9623 5.37314 50.9154 5.09187 50.8497 4.80121L50.5963 3.53547C50.5682 3.38546 50.54 3.2542 50.5119 3.10418C50.4837 2.97292 50.4556 2.8229 50.4274 2.69164C50.3993 2.54163 50.3524 2.40099 50.3524 2.25098H43.5962C43.5868 2.31661 43.568 2.36349 43.5492 2.41974C43.4929 2.57913 43.4179 2.75727 43.3803 2.91666H43.3428C43.324 2.85103 43.2584 2.80415 43.2114 2.75727C43.1082 2.65414 42.9862 2.58851 42.8642 2.52288C42.5546 2.33536 42.0666 2.25098 41.6538 2.25098H34.5785C34.5785 2.50413 34.541 2.70102 34.541 2.93542C34.541 3.01042 34.5316 3.03855 34.5316 3.08543C34.5222 3.15106 34.5316 3.20732 34.5222 3.26357C34.5128 3.35733 34.5034 3.50734 34.4941 3.6011C34.4847 3.65736 34.4941 3.71361 34.4941 3.76987L34.4377 4.63245C34.4096 4.83872 34.4002 5.40127 34.3814 5.66379L34.3533 6.17009C34.3533 6.34823 34.3158 6.49825 34.3158 6.66701L34.2125 8.20466C34.2032 8.48593 34.1562 8.77659 34.1656 9.05786C34.1656 9.33914 34.1281 9.62979 34.1187 9.91107L33.9873 11.9363C33.9873 12.3394 33.9216 12.752 33.9216 13.1551H33.9029C33.9029 12.8176 33.7809 12.18 33.7527 11.805L33.7246 11.58C33.7152 11.4862 33.7152 11.4393 33.7058 11.355L33.3868 8.66407C33.3023 8.07339 33.2648 7.45459 33.171 6.87328L33.1147 6.42324L32.6361 2.37286C32.6173 2.2041 32.5986 2.26035 32.242 2.26035H28.7137L28.0757 4.89497C27.5783 6.87328 27.1185 8.86097 26.6212 10.8487C26.5649 11.0643 26.5086 11.2893 26.4617 11.505L25.4201 15.7897L25.3356 16.1273L24.3691 20.0933C24.3597 20.1214 24.2847 20.4214 24.2847 20.4214C24.2941 20.4683 24.2847 20.4496 24.341 20.4496H27.9537V20.4871Z" fill="white"/>
<path fill-rule="evenodd" clip-rule="evenodd" d="M0.600552 18.5466C0.609936 18.4622 0.628703 18.3778 0.64747 18.3028L0.703772 17.9934C0.713155 17.9465 0.713155 17.8903 0.731923 17.834C0.741306 17.7871 0.75069 17.7496 0.760074 17.7121C0.769457 17.6277 0.788224 17.5434 0.797608 17.4496C0.806992 17.3652 0.835143 17.2808 0.844526 17.2152C0.844526 17.1589 0.928979 16.6808 0.947746 16.6433C0.947746 16.5683 1.06035 15.8651 1.07912 15.8276C1.0885 15.6963 1.13542 15.5463 1.1448 15.415C1.15419 15.265 1.21049 15.0681 1.22925 14.9181C1.23864 14.7868 1.27617 14.6181 1.29494 14.4868C1.30432 14.4118 1.31371 14.3556 1.33247 14.2712C1.34186 14.2149 1.36063 14.1587 1.36063 14.0837C1.38878 13.9899 1.39816 13.8118 1.42631 13.7367C1.43569 13.5961 1.47323 13.4555 1.492 13.3148C1.50138 13.2586 1.51076 13.2211 1.52015 13.1554C1.52953 13.1086 1.52015 13.0711 1.5483 13.0523C1.5483 12.9304 1.59522 12.8085 1.59522 12.7054C1.62337 12.546 1.6609 12.3772 1.67967 12.2179C1.69844 12.1053 1.7172 12.0022 1.73597 11.8897C1.74535 11.8522 1.75474 11.7678 1.76412 11.7303C1.7735 11.6741 1.78289 11.6553 1.78289 11.599C1.79227 11.5147 1.81104 11.4303 1.82981 11.3459C1.83919 11.2803 1.86734 11.1771 1.86734 11.1209C1.88611 11.0271 1.90488 10.924 1.91426 10.8396C1.92364 10.6521 1.99871 10.4646 1.99871 10.2677C2.01748 10.2208 2.04563 10.0614 2.04563 10.0145C2.0644 9.92077 2.08316 9.81763 2.09255 9.73325L2.177 9.21758C2.18638 9.18007 2.18638 9.1707 2.18638 9.13319C2.18638 9.11444 2.18638 9.11444 2.19577 9.09569L2.20515 9.07694C2.20515 8.9363 2.25207 8.76754 2.27084 8.63627C2.27084 8.58002 2.31776 8.30812 2.33652 8.27999C2.33652 8.1581 2.37406 8.11123 2.37406 7.99871C2.38344 7.95184 2.42098 7.78307 2.42098 7.72681C2.42098 7.66118 2.43974 7.63306 2.44913 7.56742L2.52419 7.17364C2.52419 7.05175 2.54296 6.9955 2.56173 6.88299C2.57111 6.84548 2.59926 6.66734 2.60865 6.62046C2.61803 6.53608 2.6368 6.47982 2.64618 6.38606C2.65557 6.32043 2.73063 5.79538 2.75879 5.76726C2.75879 5.68287 2.76817 5.66412 2.78694 5.58912C2.79632 5.52348 2.83385 5.19533 2.86201 5.1672C2.86201 5.06407 2.88077 4.98906 2.89954 4.88592C2.91831 4.79217 2.91831 4.72654 2.94646 4.65153L3.04968 4.06085C3.04968 3.98584 3.13413 3.47954 3.1529 3.45142C3.1529 3.36703 3.22797 2.91699 3.25612 2.86074C3.25612 2.79511 3.30304 2.50445 3.3218 2.46695C3.3218 2.38257 3.34995 2.23255 3.36872 2.14817C3.36872 2.09191 3.49071 1.3981 3.50009 1.3606C3.50009 1.22933 3.54701 1.06994 3.56578 0.938682C3.56578 0.863675 3.57516 0.882427 3.58454 0.826172H23.9939L23.9001 1.44498C23.8813 1.53874 23.9095 1.48248 23.8626 1.51999L23.8719 1.56687C23.8438 1.7075 23.7687 2.32631 23.7218 2.39194C23.7312 2.47633 23.6467 3.03888 23.6092 3.09513C23.6186 3.18889 23.5341 3.65769 23.506 3.7702L23.4497 4.08898L23.2714 5.06407C23.2808 5.1297 23.1963 5.64537 23.1682 5.69225C23.1776 5.83289 23.1213 6.04853 23.0931 6.19855L23.0086 6.69547C22.9993 6.71422 22.9993 6.71422 22.9993 6.73297L22.9899 6.7611C22.9993 6.83611 22.9805 7.01425 22.9336 7.0705C22.943 7.17364 22.896 7.37053 22.8773 7.47367C22.8585 7.58618 22.7834 8.12998 22.7459 8.17686C22.7553 8.26124 22.6896 8.71128 22.6427 8.76754C22.6521 8.81442 22.6052 9.19883 22.5582 9.25508C22.577 9.37697 22.4644 9.83639 22.4456 10.0052C22.4175 10.1083 22.4081 10.2208 22.3893 10.3239L22.3236 10.6521C22.333 10.699 22.2767 11.1771 22.2204 11.2521C22.2392 11.3271 22.211 11.5053 22.1641 11.5615C22.1735 11.6459 22.1454 11.7397 22.136 11.8334L22.0328 12.3491C22.0421 12.4148 22.014 12.6304 21.9764 12.6773C21.9858 12.771 21.9389 13.0992 21.892 13.1648C21.9014 13.2586 21.8732 13.3617 21.8545 13.4555C21.8451 13.5211 21.8263 13.6899 21.7888 13.7367C21.7982 13.793 21.7888 13.8399 21.7794 13.8961C21.7794 13.9243 21.77 13.9524 21.7606 13.9805C21.7512 14.0368 21.7606 14.0086 21.7325 14.0462C21.7419 14.1118 21.7325 14.1493 21.7231 14.2055C21.7231 14.2243 21.7137 14.2618 21.7137 14.2806C21.7043 14.3368 21.7137 14.3087 21.6856 14.3462L21.6293 14.7868C21.5917 14.8994 21.6668 14.6931 21.6199 14.815C21.6199 14.815 21.6105 14.8337 21.6105 14.8244C21.6105 14.8244 21.6105 14.8337 21.6011 14.8337C21.6105 14.89 21.6011 14.9369 21.5917 14.9931L21.5542 15.1338C21.573 15.2088 21.5073 15.6025 21.4697 15.6588C21.4791 15.7526 21.4134 16.1932 21.3665 16.2495C21.3759 16.3432 21.329 16.6901 21.2821 16.7464C21.2914 16.8214 21.2727 16.9902 21.2351 17.0464C21.2445 17.1308 21.2164 17.2339 21.1976 17.3277L21.1319 17.7402C21.1225 17.8059 21.085 18.0684 21.0569 18.1247C21.0756 18.2184 21.0381 18.3403 21.0193 18.4434C21.0006 18.5372 21.0006 18.6685 20.9536 18.7341C20.963 18.8185 20.9349 18.9122 20.9255 18.9966C20.9161 19.0716 20.9067 19.1841 20.8692 19.231C20.8879 19.3435 20.8223 19.5779 20.8035 19.6998C20.7847 19.8217 20.7847 20.0467 20.719 20.1311C20.7284 20.2249 20.6815 20.5718 20.6346 20.628C20.644 20.7124 20.5689 21.1812 20.5314 21.2281C20.5408 21.3406 20.4751 21.65 20.4563 21.7812C20.4375 21.9219 20.4657 21.9406 20.3249 21.95H2.68372V21.9406C2.1207 21.9406 1.55768 21.9406 1.00405 21.95H0C0.00938362 21.875 0.0281509 21.7906 0.0469181 21.7062L0.121987 21.2187C0.131371 21.1812 0.150138 21.0124 0.168905 20.9937C0.168905 20.9374 0.234591 20.5061 0.253358 20.478C0.253358 20.4124 0.272125 20.3186 0.281509 20.2624C0.487948 19.0622 0.328427 20.103 0.572401 18.5184L0.600552 18.5466ZM4.87948 20.178H8.05115C9.03643 15.3306 10.3501 7.60493 11.2228 2.53258H8.0793C8.11684 3.64831 5.02962 19.3435 4.88887 20.1873L4.87948 20.178ZM12.818 15.0494C12.7899 15.115 12.7805 15.2369 12.7711 15.3213C12.7617 15.4057 12.7242 15.5088 12.7242 15.6025C12.7242 15.6588 12.696 15.7338 12.6867 15.7901C12.6773 15.8557 12.6585 15.9401 12.6491 16.0151C12.6304 16.0432 12.5834 16.3339 12.5834 16.3995C12.5553 16.437 12.4802 16.9152 12.4802 16.9996L12.377 17.5246C12.3582 17.6652 12.3113 17.7778 12.3301 17.9559C12.3582 18.2372 12.6022 18.4153 12.9025 18.3684C13.1277 18.3309 13.1089 18.3122 13.2591 18.2278C13.3154 18.134 13.5406 17.9465 13.5218 17.7965C13.5593 17.7402 13.625 17.309 13.6344 17.2433C13.6626 17.1214 13.7376 16.7464 13.7282 16.6526L13.7376 16.6245C13.7376 16.6151 13.8127 16.3995 13.7939 16.2682L13.8221 16.1745C13.8315 16.1463 13.8315 16.1088 13.8408 16.0713C13.8502 16.0057 13.8784 15.9307 13.8596 15.8651C13.869 15.8463 13.869 15.8651 13.8784 15.8276L13.8971 15.7432C13.9065 15.6776 13.9065 15.6776 13.9065 15.6213C13.9534 15.565 13.9722 15.3119 13.991 15.2181C14.0098 15.0963 14.0754 14.8337 14.0661 14.7306L14.1317 14.4493C14.1505 14.3462 14.1787 14.243 14.1693 14.1493C14.1974 14.1118 14.1974 14.0555 14.188 13.9993C14.2725 13.868 14.1411 13.3617 14.0942 13.2211C14.0473 13.0898 13.8033 12.696 13.7282 12.6585C13.7095 12.6116 13.503 12.3304 13.4561 12.3022C13.4374 12.246 13.4561 12.2929 13.4186 12.246L13.1558 11.9178L13.0902 11.8147C13.0057 11.7116 12.6116 11.1959 12.5741 11.1865C12.5553 11.1209 12.3958 10.9334 12.3395 10.8677C12.2925 10.8115 12.133 10.5865 12.0955 10.5677C12.0767 10.5302 11.8515 10.2114 11.814 10.1927C11.7671 10.0802 11.6826 9.97702 11.6169 9.86451C11.5888 9.81763 11.5512 9.752 11.5231 9.68637C11.5043 9.63949 11.4762 9.54573 11.448 9.50823C11.4105 9.29259 11.3917 9.18945 11.4011 8.95505L11.4856 8.355L11.6263 7.56742C11.6545 7.43616 11.7295 7.09863 11.7108 6.98612C11.7577 6.92049 11.7952 6.62046 11.7952 6.5267C11.8328 6.47982 11.9078 6.00165 11.8984 5.93602C11.9641 5.83289 11.9923 5.39222 12.0392 5.23283C12.058 5.10157 12.133 4.81092 12.1236 4.69841C12.1424 4.67966 12.133 4.69841 12.1424 4.6609L12.1799 4.50151C12.1987 4.43588 12.2269 4.36088 12.2175 4.29524C12.2456 4.25774 12.2362 4.27649 12.255 4.22024C12.2644 4.19211 12.2738 4.17336 12.2832 4.14523C12.3019 4.08898 12.3207 4.05147 12.3207 3.98584C12.3676 3.93896 12.4239 3.77957 12.4521 3.70456L12.6022 3.42329C12.6491 3.39516 12.696 3.32015 12.7336 3.27327C12.7805 3.20764 12.818 3.17952 12.8743 3.13264C12.9213 3.09513 13.184 2.91699 13.1934 2.89824C13.2778 2.87011 13.3717 2.80448 13.4655 2.76698C13.5593 2.72947 13.6438 2.69197 13.747 2.66384C13.9628 2.59821 14.1505 2.57008 14.3851 2.55133C15.0513 2.53258 15.7363 2.55133 16.412 2.55133C17.0594 2.55133 17.6694 2.60759 18.0166 2.98262C18.0916 3.05763 18.2512 3.27327 18.2981 3.40454C18.3356 3.51705 18.3825 3.60143 18.4107 3.72332C18.4388 3.85458 18.4482 3.97647 18.4482 4.13585C18.4482 4.19211 18.4388 4.29524 18.4294 4.37025C18.4201 4.44526 18.4013 4.53902 18.4013 4.6234C18.3919 4.70778 18.3638 4.81092 18.3544 4.8953C18.345 4.98906 18.3262 5.12032 18.2981 5.19533C18.2981 5.26096 18.2699 5.36409 18.2605 5.4391C18.2418 5.53286 18.223 5.62662 18.2136 5.711C18.2042 5.73913 18.1667 5.95477 18.1667 5.99228C18.1573 6.05791 18.1385 6.13292 18.1198 6.2173C18.101 6.31106 18.0822 6.39544 18.0822 6.4892C18.0541 6.57358 18.0447 6.68609 18.0259 6.78923C18.0072 6.91111 17.9884 7.00487 17.9696 7.11738C17.9696 7.18301 17.9321 7.3424 17.9227 7.39866C17.9133 7.45491 17.9133 7.47367 17.904 7.5393C17.8946 7.58618 17.8758 7.64243 17.8758 7.70806C17.8664 7.77369 17.8477 7.85808 17.8289 7.93308C17.8101 8.01747 17.7914 8.11123 17.7914 8.18623C17.782 8.24249 17.7632 8.31749 17.7444 8.3925L15.239 8.40188C15.239 8.22374 15.3516 7.90496 15.3422 7.73619C15.3891 7.67993 15.4361 7.32365 15.4267 7.23927C15.4454 7.21114 15.4361 7.23927 15.4454 7.19239L15.5205 6.69547C15.5768 6.62984 15.6237 6.09541 15.6613 5.97353C15.68 5.84226 15.7363 5.64537 15.727 5.52348C15.7645 5.46723 15.7645 5.32659 15.7926 5.26096L15.802 5.1672L15.8302 5.04531C15.9052 4.67966 15.7645 4.36088 15.3798 4.36088C15.0701 4.36088 14.7511 4.54839 14.6572 4.81092C14.6385 4.8578 14.6385 4.88592 14.6197 4.92343C14.6009 5.01719 14.5728 5.14845 14.5728 5.24221C14.554 5.32659 14.5446 5.38285 14.5259 5.4766C14.5071 5.57036 14.4883 5.64537 14.4883 5.74851L14.4508 5.88914L14.4226 6.05791C14.4039 6.1798 14.3757 6.29231 14.3663 6.40482C14.3382 6.42357 14.3476 6.47982 14.3382 6.5267C14.3288 6.59233 14.3194 6.61109 14.31 6.66734C14.3006 6.75172 14.2631 6.87361 14.2631 6.95799C14.2443 7.033 14.235 7.09863 14.2162 7.19239C14.1974 7.28615 14.1787 7.36116 14.1787 7.46429C14.1505 7.50179 14.113 7.77369 14.1036 7.86745C14.0942 7.93308 14.0754 8.19561 14.0942 8.26124C14.113 8.31749 14.0754 8.27999 14.1224 8.30812C14.0754 8.43938 14.2443 8.76754 14.3194 8.8988C14.3663 8.97381 14.31 8.92693 14.3851 8.96443C14.3757 9.01131 14.3757 8.97381 14.3851 9.01131C14.3851 9.03006 14.4039 9.04881 14.4132 9.06756L14.8637 9.677C14.9012 9.70512 14.8355 9.677 14.9012 9.70512C14.9012 9.76138 15.1264 10.0239 15.1733 10.0614L15.5111 10.4552C15.5111 10.4646 15.4924 10.4646 15.5393 10.5302L15.9615 11.0552L16.1961 11.3459C16.2618 11.4303 16.2337 11.4115 16.29 11.4397C16.2994 11.4959 16.4307 11.6553 16.4683 11.7209C16.5433 11.8334 16.609 11.9928 16.6653 12.021C16.6465 12.0772 16.6559 12.0397 16.6841 12.1053C16.7029 12.1335 16.7029 12.1429 16.7216 12.1897L16.8436 12.5366C16.8811 12.6773 16.853 12.6867 16.8999 12.7242C16.853 12.8367 16.8811 13.0054 16.8811 13.1273C16.8718 13.2023 16.8624 13.2211 16.8624 13.3148C16.8436 13.343 16.7779 13.8024 16.7779 13.8774C16.7498 13.9055 16.7779 13.868 16.7592 13.9149C16.7592 13.9243 16.7498 13.9805 16.7498 13.9805C16.7404 14.0462 16.731 14.0837 16.731 14.1399C16.7122 14.1774 16.6465 14.5618 16.6465 14.6181C16.6278 14.6931 16.609 14.8056 16.5996 14.8994C16.5902 15.0025 16.5527 15.0963 16.5527 15.2181C16.5339 15.2369 16.5339 15.2838 16.5246 15.3213C16.5152 15.3775 16.5152 15.4057 16.5058 15.4525C16.487 15.5463 16.4776 15.6494 16.4589 15.7338C16.4589 15.8276 16.412 15.9588 16.412 16.0713C16.3932 16.0995 16.365 16.287 16.365 16.3432C16.3463 16.4745 16.3087 16.6058 16.2994 16.7464C16.2806 16.7933 16.2337 17.0746 16.2337 17.1496C16.2055 17.1683 16.2055 17.2433 16.2055 17.2808C16.1961 17.3465 16.1868 17.3746 16.1774 17.4402C16.1586 17.5527 16.1305 17.6746 16.1211 17.7871C16.1023 17.834 16.0835 17.9371 16.0741 17.9934C16.0554 18.059 16.0272 18.1622 16.0178 18.2372L15.8583 18.6872C15.7739 18.8935 15.6707 19.0154 15.6331 19.1091C15.6144 19.1185 15.5017 19.2779 15.4736 19.3154C15.4361 19.3623 15.4267 19.3716 15.3891 19.4185L15.2859 19.531C15.2109 19.6342 14.9106 19.8498 14.7698 19.9061C14.6948 19.9342 14.6291 19.953 14.554 19.9998C14.4695 20.0092 14.1411 20.1217 13.8408 20.1311L13.0057 20.1498C12.8462 20.1498 12.743 20.1686 12.6022 20.1686H11.5137C11.4105 20.1686 11.3917 20.1498 11.2979 20.1498C11.251 20.1498 11.1196 20.1217 11.0633 20.1123C11.0258 20.103 10.9976 20.103 10.9507 20.0936C10.9038 20.0842 10.885 20.0655 10.8287 20.0655C10.5003 19.9905 10.4064 19.8779 10.2375 19.7561C10.2094 19.7373 10.2282 19.7467 10.2094 19.7373C10.1812 19.6904 10.2094 19.7279 10.1718 19.6811C10.1625 19.6623 10.1531 19.6623 10.1437 19.6435L9.82465 19.0435C9.81527 18.9591 9.78712 18.8841 9.77774 18.7997C9.76835 18.706 9.78712 18.6216 9.76835 18.5372C9.7965 18.4809 9.83404 18.0497 9.84342 17.9465C9.86219 17.7965 9.93726 17.4871 9.92787 17.3652C9.96541 17.309 9.99356 17.1121 9.98418 17.0464L9.99356 17.0183C9.99356 17.0183 10.078 16.7089 10.0592 16.587C10.0968 16.5401 10.1906 15.987 10.1812 15.9026L10.2188 15.7619C10.2282 15.6963 10.2469 15.6588 10.2282 15.6025L10.2469 15.5463C10.2469 15.5369 10.2563 15.4994 10.2563 15.49C10.2657 15.4525 10.2657 15.415 10.2751 15.3775C10.2845 15.3025 10.3126 15.2181 10.3032 15.1431C10.3501 15.0775 10.3971 14.7681 10.3877 14.6743C10.4252 14.6181 10.5003 14.093 10.519 13.9805C10.5753 13.9336 11.7014 13.9618 11.7671 13.9618H13.0432L12.9494 14.5149L12.9119 14.7306C12.8931 14.8337 12.8556 14.9369 12.8556 15.0494H12.818Z" fill="#1AA74B"/>
</svg>
