<svg width="125" height="112" viewBox="0 0 125 112" fill="none" xmlns="http://www.w3.org/2000/svg">
<rect width="125" height="112" fill="#FF6600"/>
<path d="M41.6094 21.0469C38.3906 21.0469 35.8594 22.1875 34.0156 24.4688C32.1719 26.75 31.25 29.8984 31.25 33.9141C31.25 38.1172 32.1328 41.2969 33.8984 43.4531C35.6797 45.6094 38.25 46.6875 41.6094 46.6875C43.0625 46.6875 44.4688 46.5469 45.8281 46.2656C47.1875 45.9688 48.6016 45.5938 50.0703 45.1406V49.9453C47.3828 50.9609 44.3359 51.4688 40.9297 51.4688C35.9141 51.4688 32.0625 49.9531 29.375 46.9219C26.6875 43.875 25.3438 39.5234 25.3438 33.8672C25.3438 30.3047 25.9922 27.1875 27.2891 24.5156C28.6016 21.8438 30.4922 19.7969 32.9609 18.375C35.4297 16.9531 38.3281 16.2422 41.6562 16.2422C45.1562 16.2422 48.3906 16.9766 51.3594 18.4453L49.3438 23.1094C48.1875 22.5625 46.9609 22.0859 45.6641 21.6797C44.3828 21.2578 43.0312 21.0469 41.6094 21.0469ZM73.0859 51L71.9844 47.3906H71.7969C70.5469 48.9688 69.2891 50.0469 68.0234 50.625C66.7578 51.1875 65.1328 51.4688 63.1484 51.4688C60.6016 51.4688 58.6094 50.7812 57.1719 49.4062C55.75 48.0312 55.0391 46.0859 55.0391 43.5703C55.0391 40.8984 56.0312 38.8828 58.0156 37.5234C60 36.1641 63.0234 35.4219 67.0859 35.2969L71.5625 35.1562V33.7734C71.5625 32.1172 71.1719 30.8828 70.3906 30.0703C69.625 29.2422 68.4297 28.8281 66.8047 28.8281C65.4766 28.8281 64.2031 29.0234 62.9844 29.4141C61.7656 29.8047 60.5938 30.2656 59.4688 30.7969L57.6875 26.8594C59.0938 26.125 60.6328 25.5703 62.3047 25.1953C63.9766 24.8047 65.5547 24.6094 67.0391 24.6094C70.3359 24.6094 72.8203 25.3281 74.4922 26.7656C76.1797 28.2031 77.0234 30.4609 77.0234 33.5391V51H73.0859ZM64.8828 47.25C66.8828 47.25 68.4844 46.6953 69.6875 45.5859C70.9062 44.4609 71.5156 42.8906 71.5156 40.875V38.625L68.1875 38.7656C65.5938 38.8594 63.7031 39.2969 62.5156 40.0781C61.3438 40.8438 60.7578 42.0234 60.7578 43.6172C60.7578 44.7734 61.1016 45.6719 61.7891 46.3125C62.4766 46.9375 63.5078 47.25 64.8828 47.25ZM97.8594 24.6094C98.9688 24.6094 99.8828 24.6875 100.602 24.8438L100.062 29.9766C99.2812 29.7891 98.4688 29.6953 97.625 29.6953C95.4219 29.6953 93.6328 30.4141 92.2578 31.8516C90.8984 33.2891 90.2188 35.1562 90.2188 37.4531V51H84.7109V25.0781H89.0234L89.75 29.6484H90.0312C90.8906 28.1016 92.0078 26.875 93.3828 25.9688C94.7734 25.0625 96.2656 24.6094 97.8594 24.6094ZM17.2109 93V58.7344H19.6016V90.75H35.9375V93H17.2109ZM62.3516 80.2266C62.3516 84.3828 61.3438 87.6328 59.3281 89.9766C57.3125 92.3047 54.5312 93.4688 50.9844 93.4688C48.75 93.4688 46.7812 92.9297 45.0781 91.8516C43.375 90.7734 42.0703 89.2266 41.1641 87.2109C40.2578 85.1953 39.8047 82.8672 39.8047 80.2266C39.8047 76.0703 40.8125 72.8359 42.8281 70.5234C44.8438 68.1953 47.6094 67.0312 51.125 67.0312C54.625 67.0312 57.3672 68.2109 59.3516 70.5703C61.3516 72.9141 62.3516 76.1328 62.3516 80.2266ZM42.2422 80.2266C42.2422 83.7266 43.0078 86.4609 44.5391 88.4297C46.0859 90.3828 48.2656 91.3594 51.0781 91.3594C53.8906 91.3594 56.0625 90.3828 57.5938 88.4297C59.1406 86.4609 59.9141 83.7266 59.9141 80.2266C59.9141 76.7109 59.1328 73.9844 57.5703 72.0469C56.0234 70.1094 53.8438 69.1406 51.0312 69.1406C48.2188 69.1406 46.0469 70.1094 44.5156 72.0469C43 73.9688 42.2422 76.6953 42.2422 80.2266ZM71.6797 81.8203L84.6875 67.5234H87.5L77.4688 78.3984L88.3672 93H85.5781L75.8984 80.1328L71.7266 83.9297V93H69.4062V56.5312H71.7266V74.8125L71.5625 81.8203H71.6797ZM94.9297 81.8203L107.938 67.5234H110.75L100.719 78.3984L111.617 93H108.828L99.1484 80.1328L94.9766 83.9297V93H92.6562V56.5312H94.9766V74.8125L94.8125 81.8203H94.9297Z" fill="white"/>
</svg>
