<svg width="24" height="31" viewBox="0 0 24 31" fill="none" xmlns="http://www.w3.org/2000/svg">
<path d="M0.750115 12.822H0.750122V12.8187C0.750122 6.62418 5.79748 1.57617 12 1.57617C18.2022 1.57617 23.2499 6.62388 23.2499 12.8262L23.2499 12.8295C23.2703 17.3659 20.4366 21.6847 17.4623 24.943C15.9892 26.5568 14.5125 27.8771 13.4032 28.7941C12.8492 29.2521 12.3883 29.6083 12.0674 29.8489C12.0434 29.8669 12.0202 29.8843 11.9977 29.901C11.0369 29.1957 8.68213 27.3752 6.36845 24.8226C3.45672 21.6101 0.729658 17.3683 0.750115 12.822ZM5.25006 12.8262C5.25006 16.5554 8.27081 19.5762 12 19.5762C15.7292 19.5762 18.7499 16.5554 18.7499 12.8262C18.7499 9.09696 15.7292 6.07617 12 6.07617C8.27081 6.07617 5.25006 9.09696 5.25006 12.8262Z" stroke="white" stroke-opacity="0.63" stroke-width="1.5"/>
</svg>
