<svg width="23" height="35" viewBox="0 0 23 35" fill="none" xmlns="http://www.w3.org/2000/svg">
<path fill-rule="evenodd" clip-rule="evenodd" d="M11.5 6.5625C11.7901 6.5625 12.0683 6.67773 12.2734 6.88285C12.4785 7.08797 12.5938 7.36617 12.5938 7.65625V12.0312C12.5938 12.3213 12.4785 12.5995 12.2734 12.8046C12.0683 13.0098 11.7901 13.125 11.5 13.125C11.2099 13.125 10.9317 13.0098 10.7266 12.8046C10.5215 12.5995 10.4062 12.3213 10.4062 12.0312V7.65625C10.4062 7.36617 10.5215 7.08797 10.7266 6.88285C10.9317 6.67773 11.2099 6.5625 11.5 6.5625ZM20.25 24.0625V10.9375C20.25 8.61686 19.3281 6.39126 17.6872 4.75032C16.0462 3.10937 13.8206 2.1875 11.5 2.1875C9.17936 2.1875 6.95376 3.10937 5.31282 4.75032C3.67187 6.39126 2.75 8.61686 2.75 10.9375V24.0625C2.75 26.3831 3.67187 28.6087 5.31282 30.2497C6.95376 31.8906 9.17936 32.8125 11.5 32.8125C13.8206 32.8125 16.0462 31.8906 17.6872 30.2497C19.3281 28.6087 20.25 26.3831 20.25 24.0625ZM11.5 0C8.59919 0 5.8172 1.15234 3.76602 3.20352C1.71484 5.2547 0.5625 8.03669 0.5625 10.9375V24.0625C0.5625 26.9633 1.71484 29.7453 3.76602 31.7965C5.8172 33.8477 8.59919 35 11.5 35C14.4008 35 17.1828 33.8477 19.234 31.7965C21.2852 29.7453 22.4375 26.9633 22.4375 24.0625V10.9375C22.4375 8.03669 21.2852 5.2547 19.234 3.20352C17.1828 1.15234 14.4008 0 11.5 0V0Z" fill="white" fill-opacity="0.67"/>
</svg>
