<svg width="51" height="51" viewBox="0 0 51 51" fill="none" xmlns="http://www.w3.org/2000/svg">
<path d="M47.8125 28.6875V25.5H38.25V41.4375H41.4375V35.0625H46.2188V31.875H41.4375V28.6875H47.8125Z" fill="#FF6601"/>
<path d="M30.2812 41.4375H23.9062V25.5H30.2812C31.5489 25.5013 32.7643 26.0054 33.6607 26.9018C34.5571 27.7982 35.0612 29.0136 35.0625 30.2812V36.6562C35.0612 37.9239 34.5571 39.1393 33.6607 40.0357C32.7643 40.9321 31.5489 41.4362 30.2812 41.4375ZM27.0938 38.25H30.2812C30.7038 38.2496 31.1089 38.0815 31.4077 37.7827C31.7065 37.4839 31.8746 37.0788 31.875 36.6562V30.2812C31.8746 29.8587 31.7065 29.4536 31.4077 29.1548C31.1089 28.856 30.7038 28.6879 30.2812 28.6875H27.0938V38.25Z" fill="#FF6601"/>
<path d="M17.5312 25.5H9.5625V41.4375H12.75V36.6562H17.5312C18.3762 36.655 19.1863 36.3188 19.7838 35.7213C20.3813 35.1238 20.7175 34.3137 20.7188 33.4688V28.6875C20.7179 27.8424 20.3818 27.0321 19.7842 26.4345C19.1866 25.8369 18.3764 25.5008 17.5312 25.5ZM12.75 33.4688V28.6875H17.5312L17.5328 33.4688H12.75Z" fill="#FF6601"/>
<path d="M35.0625 22.3126V15.9376C35.0681 15.7281 35.0283 15.5199 34.9458 15.3273C34.8632 15.1347 34.7399 14.9623 34.5844 14.8219L23.4281 3.66568C23.2878 3.51004 23.1154 3.38669 22.9228 3.30415C22.7302 3.2216 22.522 3.18182 22.3125 3.18755H6.375C5.5304 3.19008 4.72111 3.52671 4.12388 4.12394C3.52666 4.72116 3.19002 5.53045 3.1875 6.37505V44.625C3.1875 45.4704 3.52332 46.2812 4.1211 46.879C4.71887 47.4767 5.52962 47.8125 6.375 47.8125H31.875V44.625H6.375V6.37505H19.125V15.9376C19.1275 16.7822 19.4642 17.5914 20.0614 18.1887C20.6586 18.7859 21.4679 19.1225 22.3125 19.1251H31.875V22.3126H35.0625ZM22.3125 15.9376V7.01255L31.2375 15.9376H22.3125Z" fill="#333333"/>
</svg>
