<svg width="29" height="30" viewBox="0 0 29 30" fill="none" xmlns="http://www.w3.org/2000/svg">
<path d="M22.4242 29.8261C22.142 29.8253 21.8606 29.7937 21.5849 29.7317C16.3364 28.6214 11.501 26.0181 7.63549 22.2214C3.85242 18.4164 1.22866 13.5718 0.0816526 8.27371C-0.0535935 7.61341 -0.0203987 6.92863 0.178043 6.28525C0.376485 5.64187 0.733496 5.06155 1.21473 4.6001L4.57199 1.29557C4.74347 1.12973 4.94721 1.00274 5.16993 0.922875C5.39265 0.843011 5.62933 0.812073 5.86453 0.83208C6.10841 0.858098 6.34375 0.938437 6.554 1.06745C6.76426 1.19646 6.94433 1.37101 7.08154 1.57882L11.2781 7.9218C11.4355 8.16792 11.5115 8.45919 11.4948 8.75277C11.4782 9.04634 11.3699 9.3267 11.1858 9.55261L9.07911 12.1276C9.91813 14.0266 11.1063 15.7429 12.5791 17.1831C14.0422 18.6755 15.7717 19.8672 17.6737 20.6936L20.284 18.5735C20.5032 18.3964 20.77 18.2916 21.0488 18.2732C21.3277 18.2548 21.6054 18.3236 21.8451 18.4705L28.1819 22.6591C28.3994 22.7919 28.5846 22.9733 28.7238 23.1897C28.863 23.4061 28.9525 23.6519 28.9856 23.9087C29.0187 24.1655 28.9946 24.4266 28.915 24.6725C28.8354 24.9184 28.7024 25.1426 28.526 25.3285L25.2527 28.6416C24.8809 29.02 24.4396 29.3194 23.9541 29.5227C23.4687 29.726 22.9488 29.8291 22.4242 29.8261ZM5.73024 2.53155L2.37298 5.83608C2.10226 6.09405 1.90186 6.41964 1.79149 6.78082C1.68112 7.142 1.66458 7.52635 1.7435 7.89605C2.81003 12.8676 5.26167 17.4168 8.80214 20.994C12.4399 24.5659 16.9902 27.0146 21.929 28.058C22.3029 28.1379 22.6902 28.1217 23.0565 28.0109C23.4227 27.9 23.7562 27.6979 24.0273 27.4228L27.3006 24.1097L21.182 20.067L18.3787 22.3501C18.2714 22.437 18.1449 22.4957 18.0104 22.5211C17.8758 22.5466 17.7371 22.538 17.6066 22.4961C15.2789 21.619 13.1695 20.2268 11.4292 18.419C9.62916 16.7 8.23192 14.5875 7.34173 12.2391C7.30407 12.097 7.30282 11.9473 7.33809 11.8045C7.37337 11.6617 7.44399 11.5306 7.54316 11.4237L9.80931 8.65137L5.73024 2.53155Z" fill="white" fill-opacity="0.63"/>
</svg>
