<svg width="23" height="23" viewBox="0 0 23 23" fill="none" xmlns="http://www.w3.org/2000/svg">
<path fill-rule="evenodd" clip-rule="evenodd" d="M11.0625 22.9512C17.1721 22.9512 22.125 17.9983 22.125 11.8887C22.125 5.77902 17.1721 0.826172 11.0625 0.826172C4.95285 0.826172 0 5.77902 0 11.8887C0 17.9983 4.95285 22.9512 11.0625 22.9512ZM9.03438 16.959C9.30343 16.959 9.42638 16.8393 9.57499 16.6946L9.5875 16.6824L10.9162 15.3904L13.6806 17.4328C14.1894 17.7135 14.5565 17.5681 14.6833 16.9605L16.498 8.40886C16.6838 7.66397 16.214 7.32612 15.7273 7.54707L5.07138 11.656C4.34401 11.9477 4.34825 12.3535 4.9388 12.5343L7.67336 13.3878L14.0041 9.3938C14.303 9.21257 14.5773 9.31001 14.3522 9.50981L9.22271 14.1388L9.22262 14.1387L9.22261 14.1388L9.22244 14.139L9.22259 14.1391L9.03438 16.959Z" fill="white"/>
</svg>
