<svg width="29" height="29" viewBox="0 0 29 29" fill="none" xmlns="http://www.w3.org/2000/svg">
<path d="M27.907 13.407C27.3033 13.407 26.8141 13.8963 26.8141 14.5C26.8141 21.2902 21.2902 26.8141 14.5 26.8141C7.71015 26.8141 2.18593 21.2902 2.18593 14.5C2.18593 7.71015 7.71015 2.18593 14.5 2.18593C15.1037 2.18593 15.593 1.69667 15.593 1.09299C15.593 0.489262 15.1037 0 14.5 0C6.50461 0 0 6.50461 0 14.5C0 22.4951 6.50461 29 14.5 29C22.4951 29 29 22.4951 29 14.5C29 13.8963 28.5107 13.407 27.907 13.407Z" fill="#FF6600"/>
<path d="M9 10L19.5 20.5" stroke="#FF6600" stroke-width="2" stroke-linecap="round"/>
<path d="M23.5 6L9 20.5" stroke="#FF6600" stroke-width="2" stroke-linecap="round" stroke-linejoin="round"/>
</svg>
