<svg width="23" height="23" viewBox="0 0 23 23" fill="none" xmlns="http://www.w3.org/2000/svg">
<path fill-rule="evenodd" clip-rule="evenodd" d="M11.1875 0.701172C5.07785 0.701172 0.125 5.65402 0.125 11.7637C0.125 17.8733 5.07785 22.8262 11.1875 22.8262C17.2971 22.8262 22.25 17.8733 22.25 11.7637C22.25 5.65402 17.2971 0.701172 11.1875 0.701172ZM12.0882 15.2558C11.9792 15.3708 11.7662 15.3941 11.7662 15.3941H11.0609C11.0609 15.3941 9.50496 15.4858 8.13426 14.0854C6.63947 12.5575 5.31955 9.52607 5.31955 9.52607C5.31955 9.52607 5.24337 9.32722 5.3259 9.23148C5.41882 9.12327 5.67218 9.11648 5.67218 9.11648L7.35801 9.10571C7.35801 9.10571 7.51672 9.13121 7.63042 9.21335C7.72449 9.28133 7.77701 9.40767 7.77701 9.40767C7.77701 9.40767 8.04942 10.0841 8.41013 10.6959C9.11482 11.8907 9.44263 12.1519 9.68157 12.0238C10.0302 11.8375 9.9257 10.3351 9.9257 10.3351C9.9257 10.3351 9.93204 9.79007 9.75025 9.54703C9.60942 9.35895 9.34394 9.30399 9.22678 9.2887C9.13155 9.27623 9.28738 9.05982 9.48938 8.96295C9.79295 8.81736 10.3285 8.80886 10.9617 8.81509C11.4551 8.82019 11.5971 8.85021 11.7899 8.8961C12.2372 9.00207 12.2233 9.34169 12.1931 10.0746C12.1841 10.2939 12.1736 10.5482 12.1736 10.8421C12.1736 10.9081 12.1717 10.9785 12.1697 11.0509C12.1592 11.4264 12.1472 11.8564 12.3993 12.0165C12.5286 12.0981 12.8443 12.0284 13.6344 10.7118C14.009 10.0875 14.2894 9.35385 14.2894 9.35385C14.2894 9.35385 14.3512 9.22298 14.4464 9.1669C14.544 9.10968 14.6755 9.12724 14.6755 9.12724L16.4497 9.11648C16.4497 9.11648 16.9829 9.05359 17.0689 9.2904C17.1595 9.53797 16.8698 10.1169 16.1449 11.0653C15.4573 11.9651 15.1227 12.2964 15.1534 12.5894C15.1759 12.8035 15.3934 12.9972 15.8108 13.3773C16.6821 14.1714 16.9157 14.5892 16.9718 14.6895C16.9765 14.6979 16.9799 14.704 16.9824 14.708C17.3731 15.3442 16.5489 15.3941 16.5489 15.3941L14.9728 15.4156C14.9728 15.4156 14.6346 15.4813 14.189 15.181C13.9556 15.0239 13.7276 14.7672 13.5103 14.5228C13.1786 14.1494 12.8721 13.8045 12.6105 13.886C12.1713 14.0231 12.1846 14.9516 12.1846 14.9516C12.1846 14.9516 12.1881 15.1504 12.0882 15.2558Z" fill="white"/>
</svg>
